<mxfile host="app.diagrams.net" modified="2024-06-27T11:02:35.098Z" agent="Mozilla/5.0 (X11; Linux x86_64) AppleWebKit/537.36 (KHTML, like Gecko) Chrome/125.0.0.0 Safari/537.36" version="24.5.5" etag="4YBGngrrMyszn-mE5_hu" type="device">
  <diagram id="1Ksah0OnIG0X2cazaEmD" name="Page-1">
    <mxGraphModel dx="1432" dy="901" grid="1" gridSize="10" guides="1" tooltips="1" connect="1" arrows="1" fold="1" page="0" pageScale="1" pageWidth="850" pageHeight="1100" background="none" math="0" shadow="0">
      <root>
        <mxCell id="0" />
        <mxCell id="1" parent="0" />
        <mxCell id="node3" value="&lt;p style=&quot;margin:0px;margin-top:4px;text-align:center;&quot;&gt;&lt;b&gt;Client&lt;/b&gt;&lt;/p&gt;&lt;hr size=&quot;1&quot;&gt;&lt;p style=&quot;margin: 0px 0px 0px 4px; line-height: 1.6;&quot;&gt;&lt;span class=&quot;hljs-deletion&quot;&gt;- PORT : int&lt;/span&gt;&amp;nbsp;&lt;/p&gt;&lt;p style=&quot;margin: 0px 0px 0px 4px; line-height: 1.6;&quot;&gt;&lt;span class=&quot;hljs-deletion&quot;&gt;- p : Player&lt;/span&gt;&amp;nbsp;&lt;/p&gt;&lt;p style=&quot;margin: 0px 0px 0px 4px; line-height: 1.6;&quot;&gt;&lt;span class=&quot;hljs-deletion&quot;&gt;- nickname : String&lt;/span&gt;&amp;nbsp;&lt;/p&gt;&lt;p style=&quot;margin: 0px 0px 0px 4px; line-height: 1.6;&quot;&gt;&lt;span class=&quot;hljs-deletion&quot;&gt;- state : Client.State&lt;/span&gt;&amp;nbsp;&lt;/p&gt;&lt;p style=&quot;margin: 0px 0px 0px 4px; line-height: 1.6;&quot;&gt;&lt;span class=&quot;hljs-deletion&quot;&gt;- server : VirtualServer&lt;/span&gt;&amp;nbsp;&lt;/p&gt;&lt;p style=&quot;margin: 0px 0px 0px 4px; line-height: 1.6;&quot;&gt;&lt;span class=&quot;hljs-deletion&quot;&gt;- allPlayers : ArrayList&amp;lt;Player&amp;gt;&lt;/span&gt;&amp;nbsp;&lt;/p&gt;&lt;p style=&quot;margin: 0px 0px 0px 4px; line-height: 1.6;&quot;&gt;&lt;span class=&quot;hljs-deletion&quot;&gt;- starterCard : StarterCard&lt;/span&gt;&amp;nbsp;&lt;/p&gt;&lt;p style=&quot;margin: 0px 0px 0px 4px; line-height: 1.6;&quot;&gt;&lt;span class=&quot;hljs-deletion&quot;&gt;- achievements : ArrayList&amp;lt;AchievementCard&amp;gt;&lt;/span&gt;&amp;nbsp;&lt;/p&gt;&lt;p style=&quot;margin: 0px 0px 0px 4px; line-height: 1.6;&quot;&gt;&lt;span class=&quot;hljs-deletion&quot;&gt;- choosableAchievements : ArrayList&amp;lt;AchievementCard&amp;gt;&lt;/span&gt;&amp;nbsp;&lt;/p&gt;&lt;p style=&quot;margin: 0px 0px 0px 4px; line-height: 1.6;&quot;&gt;&lt;span class=&quot;hljs-deletion&quot;&gt;- commonResource : ArrayList&amp;lt;ResourceCard&amp;gt;&lt;/span&gt;&amp;nbsp;&lt;/p&gt;&lt;p style=&quot;margin: 0px 0px 0px 4px; line-height: 1.6;&quot;&gt;&lt;span class=&quot;hljs-deletion&quot;&gt;- commonGold : ArrayList&amp;lt;GoldCard&amp;gt;&lt;/span&gt;&amp;nbsp;&lt;/p&gt;&lt;p style=&quot;margin: 0px 0px 0px 4px; line-height: 1.6;&quot;&gt;&lt;span class=&quot;hljs-deletion&quot;&gt;- goldDeck : Resource&lt;/span&gt;&amp;nbsp;&lt;/p&gt;&lt;p style=&quot;margin: 0px 0px 0px 4px; line-height: 1.6;&quot;&gt;&lt;span class=&quot;hljs-deletion&quot;&gt;- resourceDeck : Resource&lt;/span&gt;&amp;nbsp;&lt;/p&gt;&lt;p style=&quot;margin: 0px 0px 0px 4px; line-height: 1.6;&quot;&gt;&lt;span class=&quot;hljs-deletion&quot;&gt;- serverActionsReceived : BlockingQueue&amp;lt;Action&amp;gt;&lt;/span&gt;&amp;nbsp;&lt;/p&gt;&lt;p style=&quot;margin: 0px 0px 0px 4px; line-height: 1.6;&quot;&gt;&lt;span class=&quot;hljs-deletion&quot;&gt;- clientActionsToSend : BlockingQueue&amp;lt;Action&amp;gt;&lt;/span&gt;&amp;nbsp;&lt;/p&gt;&lt;p style=&quot;margin: 0px 0px 0px 4px; line-height: 1.6;&quot;&gt;&lt;span class=&quot;hljs-deletion&quot;&gt;- gui : boolean&lt;/span&gt;&amp;nbsp;&lt;/p&gt;&lt;p style=&quot;margin: 0px 0px 0px 4px; line-height: 1.6;&quot;&gt;&lt;span class=&quot;hljs-deletion&quot;&gt;- connected : boolean&lt;/span&gt;&amp;nbsp;&lt;/p&gt;&lt;p style=&quot;margin: 0px 0px 0px 4px; line-height: 1.6;&quot;&gt;&lt;span class=&quot;hljs-deletion&quot;&gt;- connectionFlagServer : boolean&lt;/span&gt;&amp;nbsp;&lt;/p&gt;&lt;p style=&quot;margin: 0px 0px 0px 4px; line-height: 1.6;&quot;&gt;&lt;span class=&quot;hljs-deletion&quot;&gt;- connectionFlagClient : boolean&lt;/span&gt;&amp;nbsp;&lt;/p&gt;&lt;p style=&quot;margin: 0px 0px 0px 4px; line-height: 1.6;&quot;&gt;&lt;span class=&quot;hljs-deletion&quot;&gt;- wait : boolean&lt;/span&gt;&amp;nbsp;&lt;/p&gt;&lt;p style=&quot;margin: 0px 0px 0px 4px; line-height: 1.6;&quot;&gt;&lt;span class=&quot;hljs-deletion&quot;&gt;- startWaitRoutine : boolean&lt;/span&gt;&amp;nbsp;&lt;/p&gt;&lt;p style=&quot;margin: 0px 0px 0px 4px; line-height: 1.6;&quot;&gt;&lt;span class=&quot;hljs-deletion&quot;&gt;- guiView : GUIView&lt;/span&gt;&amp;nbsp;&lt;/p&gt;&lt;p style=&quot;margin: 0px 0px 0px 4px; line-height: 1.6;&quot;&gt;&lt;span class=&quot;hljs-deletion&quot;&gt;- loginController : LoginController&lt;/span&gt;&amp;nbsp;&lt;/p&gt;&lt;p style=&quot;margin: 0px 0px 0px 4px; line-height: 1.6;&quot;&gt;&lt;span class=&quot;hljs-deletion&quot;&gt;- playController : PlayController&lt;/span&gt;&lt;/p&gt;&lt;hr size=&quot;1&quot;&gt;&lt;p style=&quot;margin:0 0 0 4px;line-height:1.6;&quot;&gt;- createThreadAchievementListener(): Thread&lt;br&gt;- finalizeConnection(int): void&lt;br&gt;- runCommandLine(): void&lt;br&gt;- createThreadDrawListener(): Thread&lt;br&gt;+ serverUpdateThread(): void&lt;br&gt;+ showAction(Action): void&lt;br&gt;- createThreadPlaceListener(): Thread&lt;br&gt;- createThreadChatListener(): Thread&lt;br&gt;- refreshPlayers(Player): void&lt;br&gt;+ clientUpdateThread(): void&lt;br&gt;- createThreadStartListener(): Thread&lt;br&gt;- runCli(): void&lt;br&gt;+ waitingRoutineOneUser(): void&lt;br&gt;- createThreadRePlaceListener(): Thread&lt;/p&gt;" style="verticalAlign=top;align=left;overflow=fill;fontSize=14;fontFamily=Helvetica;html=1;rounded=0;shadow=0;comic=0;labelBackgroundColor=none;strokeWidth=1;" parent="1" vertex="1">
          <mxGeometry x="230" y="495" width="308" height="905" as="geometry" />
        </mxCell>
        <mxCell id="node6" value="&lt;p style=&quot;margin:0px;margin-top:4px;text-align:center;&quot;&gt;&lt;b&gt;ClientRmi&lt;/b&gt;&lt;/p&gt;&lt;hr size=&quot;1&quot;&gt;&lt;p style=&quot;margin:0 0 0 4px;line-height:1.6;&quot;&gt;&lt;span class=&quot;hljs-deletion&quot;&gt;- client : VirtualView&lt;/span&gt;&amp;nbsp;&lt;/p&gt;&lt;p style=&quot;margin:0 0 0 4px;line-height:1.6;&quot;&gt;&lt;span class=&quot;hljs-deletion&quot;&gt;- nickname : String&lt;/span&gt;&amp;nbsp;&lt;/p&gt;&lt;p style=&quot;margin:0 0 0 4px;line-height:1.6;&quot;&gt;&lt;span class=&quot;hljs-deletion&quot;&gt;- ping : boolean&lt;/span&gt;&amp;nbsp;&lt;/p&gt;&lt;p style=&quot;margin:0 0 0 4px;line-height:1.6;&quot;&gt;&lt;span class=&quot;hljs-deletion&quot;&gt;- online : boolean&lt;/span&gt;&amp;nbsp;&lt;/p&gt;&lt;p style=&quot;margin:0 0 0 4px;line-height:1.6;&quot;&gt;&lt;span class=&quot;hljs-deletion&quot;&gt;- starter : boolean&lt;/span&gt;&lt;br&gt;&lt;/p&gt;&lt;hr size=&quot;1&quot;&gt;&lt;p style=&quot;margin:0 0 0 4px;line-height:1.6;&quot;&gt;+ showAction(Action): void&lt;/p&gt;&lt;p style=&quot;margin:0 0 0 4px;line-height:1.6;&quot;&gt;&lt;br&gt;&lt;/p&gt;" style="verticalAlign=top;align=left;overflow=fill;fontSize=14;fontFamily=Helvetica;html=1;rounded=0;shadow=0;comic=0;labelBackgroundColor=none;strokeWidth=1;" parent="1" vertex="1">
          <mxGeometry x="-76" y="710" width="202" height="190" as="geometry" />
        </mxCell>
        <mxCell id="node4" value="&lt;p style=&quot;margin:0px;margin-top:4px;text-align:center;&quot;&gt;&lt;b&gt;ClientSocket&lt;/b&gt;&lt;/p&gt;&lt;hr size=&quot;1&quot;&gt;&lt;p style=&quot;margin:0 0 0 4px;line-height:1.6;&quot;&gt;&lt;/p&gt;&lt;p style=&quot;margin:0 0 0 4px;line-height:1.6;&quot;&gt;&lt;span style=&quot;background-color: initial;&quot; class=&quot;hljs-deletion&quot;&gt;- outputStream : ObjectOutputStream&lt;/span&gt;&lt;span style=&quot;background-color: initial;&quot;&gt;&amp;nbsp;&lt;/span&gt;&lt;/p&gt;&lt;p style=&quot;margin:0 0 0 4px;line-height:1.6;&quot;&gt;&lt;span style=&quot;background-color: initial;&quot; class=&quot;hljs-deletion&quot;&gt;- inputStream : ObjectInputStream&lt;/span&gt;&lt;span style=&quot;background-color: initial;&quot;&gt;&amp;nbsp;&lt;/span&gt;&lt;/p&gt;&lt;p style=&quot;margin:0 0 0 4px;line-height:1.6;&quot;&gt;&lt;span style=&quot;background-color: initial;&quot; class=&quot;hljs-deletion&quot;&gt;- serverActions : BlockingQueue&amp;lt;Action&amp;gt;&lt;/span&gt;&lt;span style=&quot;background-color: initial;&quot;&gt;&amp;nbsp;&lt;/span&gt;&lt;/p&gt;&lt;p style=&quot;margin:0 0 0 4px;line-height:1.6;&quot;&gt;&lt;span style=&quot;background-color: initial;&quot; class=&quot;hljs-deletion&quot;&gt;- clientActions : BlockingQueue&amp;lt;Action&amp;gt;&lt;/span&gt;&lt;span style=&quot;background-color: initial;&quot;&gt;&amp;nbsp;&lt;/span&gt;&lt;/p&gt;&lt;p style=&quot;margin:0 0 0 4px;line-height:1.6;&quot;&gt;&lt;span style=&quot;background-color: initial;&quot; class=&quot;hljs-deletion&quot;&gt;- clients : ArrayList&amp;lt;VirtualView&amp;gt;&lt;/span&gt;&lt;span style=&quot;background-color: initial;&quot;&gt;&amp;nbsp;&lt;/span&gt;&lt;/p&gt;&lt;p style=&quot;margin:0 0 0 4px;line-height:1.6;&quot;&gt;&lt;span style=&quot;background-color: initial;&quot; class=&quot;hljs-deletion&quot;&gt;- ping : boolean&lt;/span&gt;&lt;span style=&quot;background-color: initial;&quot;&gt;&amp;nbsp;&lt;/span&gt;&lt;/p&gt;&lt;p style=&quot;margin:0 0 0 4px;line-height:1.6;&quot;&gt;&lt;span style=&quot;background-color: initial;&quot; class=&quot;hljs-deletion&quot;&gt;- online : boolean&lt;/span&gt;&lt;span style=&quot;background-color: initial;&quot;&gt;&amp;nbsp;&lt;/span&gt;&lt;/p&gt;&lt;p style=&quot;margin:0 0 0 4px;line-height:1.6;&quot;&gt;&lt;span style=&quot;background-color: initial;&quot; class=&quot;hljs-deletion&quot;&gt;- nickname : String&lt;/span&gt;&lt;span style=&quot;background-color: initial;&quot;&gt;&amp;nbsp;&lt;/span&gt;&lt;/p&gt;&lt;p style=&quot;margin:0 0 0 4px;line-height:1.6;&quot;&gt;&lt;span style=&quot;background-color: initial;&quot; class=&quot;hljs-deletion&quot;&gt;- gameStarted : boolean&lt;/span&gt;&lt;span style=&quot;background-color: initial;&quot;&gt;&amp;nbsp;&lt;/span&gt;&lt;/p&gt;&lt;p style=&quot;margin:0 0 0 4px;line-height:1.6;&quot;&gt;&lt;span style=&quot;background-color: initial;&quot; class=&quot;hljs-deletion&quot;&gt;- playersNumber : int&lt;/span&gt;&lt;span style=&quot;background-color: initial;&quot;&gt;&amp;nbsp;&lt;/span&gt;&lt;/p&gt;&lt;p style=&quot;margin:0 0 0 4px;line-height:1.6;&quot;&gt;&lt;span style=&quot;background-color: initial;&quot; class=&quot;hljs-deletion&quot;&gt;- starter : boolean&lt;/span&gt;&lt;/p&gt;&lt;hr&gt;&lt;p style=&quot;margin:0 0 0 4px;line-height:1.6;&quot;&gt;- closeResources(): void&lt;br&gt;+ showAction(Action): void&lt;br&gt;- countOnlinePlayer(): int&lt;br&gt;+ run(): void&lt;/p&gt;&lt;p style=&quot;margin:0 0 0 4px;line-height:1.6;&quot;&gt;&lt;br&gt;&lt;/p&gt;" style="verticalAlign=top;align=left;overflow=fill;fontSize=14;fontFamily=Helvetica;html=1;rounded=0;shadow=0;comic=0;labelBackgroundColor=none;strokeWidth=1;" parent="1" vertex="1">
          <mxGeometry x="-128" y="179" width="258" height="401" as="geometry" />
        </mxCell>
        <mxCell id="node2" value="&lt;p style=&quot;margin:0px;margin-top:4px;text-align:center;&quot;&gt;&lt;b&gt;ServerSocket&lt;/b&gt;&lt;/p&gt;&lt;hr size=&quot;1&quot;&gt;&amp;nbsp;-&amp;nbsp;&lt;span style=&quot;background-color: initial;&quot;&gt;&amp;nbsp;outputStream:&amp;nbsp;&lt;/span&gt;ObjectOutputStream&lt;div&gt;&amp;nbsp;-&amp;nbsp; inputStream: ObjectInputStream&lt;/div&gt;&lt;div&gt;&amp;nbsp;-&amp;nbsp; serverActionReceived: BlockingQueue&amp;lt;Action&amp;gt;&amp;nbsp;&lt;br&gt;&lt;div&gt;&lt;hr&gt;&lt;p style=&quot;margin:0 0 0 4px;line-height:1.6;&quot;&gt;+ connect(VirtualView): boolean&lt;br&gt;+ run(): void&lt;br&gt;- closeResources(): void&lt;br&gt;+ sendAction(Action): void&lt;/p&gt;&lt;/div&gt;&lt;/div&gt;" style="verticalAlign=top;align=left;overflow=fill;fontSize=14;fontFamily=Helvetica;html=1;rounded=0;shadow=0;comic=0;labelBackgroundColor=none;strokeWidth=1;" parent="1" vertex="1">
          <mxGeometry x="215" y="-99" width="245" height="199" as="geometry" />
        </mxCell>
        <mxCell id="node7" value="&lt;p style=&quot;margin:0px;margin-top:4px;text-align:center;&quot;&gt;&lt;i&gt;&amp;lt;&amp;lt;enumeration&amp;gt;&amp;gt;&lt;/i&gt;&lt;br/&gt;&lt;b&gt;State&lt;/b&gt;&lt;/p&gt;&lt;hr size=&quot;1&quot;/&gt;&lt;p style=&quot;margin:0 0 0 4px;line-height:1.6;&quot;&gt;+ values(): State[]&lt;br/&gt;+ valueOf(String): State&lt;/p&gt;" style="verticalAlign=top;align=left;overflow=fill;fontSize=14;fontFamily=Helvetica;html=1;rounded=0;shadow=0;comic=0;labelBackgroundColor=none;strokeWidth=1;" parent="1" vertex="1">
          <mxGeometry x="180" y="120" width="180" height="96" as="geometry" />
        </mxCell>
        <mxCell id="node1" value="&lt;p style=&quot;margin:0px;margin-top:4px;text-align:center;&quot;&gt;&lt;i&gt;&amp;lt;&amp;lt;interface&amp;gt;&amp;gt;&lt;/i&gt;&lt;br/&gt;&lt;b&gt;VirtualServer&lt;/b&gt;&lt;/p&gt;&lt;hr size=&quot;1&quot;/&gt;&lt;p style=&quot;margin:0 0 0 4px;line-height:1.6;&quot;&gt;+ connect(VirtualView): boolean&lt;br/&gt;+ sendAction(Action): void&lt;/p&gt;" style="verticalAlign=top;align=left;overflow=fill;fontSize=14;fontFamily=Helvetica;html=1;rounded=0;shadow=0;comic=0;labelBackgroundColor=none;strokeWidth=1;" parent="1" vertex="1">
          <mxGeometry x="167" y="-260" width="235" height="120" as="geometry" />
        </mxCell>
        <mxCell id="node5" value="&lt;p style=&quot;margin:0px;margin-top:4px;text-align:center;&quot;&gt;&lt;i&gt;&amp;lt;&amp;lt;interface&amp;gt;&amp;gt;&lt;/i&gt;&lt;br&gt;&lt;b&gt;VirtualView&lt;/b&gt;&lt;/p&gt;&lt;hr size=&quot;1&quot;&gt;&lt;p style=&quot;margin:0 0 0 4px;line-height:1.6;&quot;&gt;+ showAction(Action): void&lt;/p&gt;&lt;p style=&quot;margin:0 0 0 4px;line-height:1.6;&quot;&gt;&lt;br&gt;&lt;/p&gt;" style="verticalAlign=top;align=left;overflow=fill;fontSize=14;fontFamily=Helvetica;html=1;rounded=0;shadow=0;comic=0;labelBackgroundColor=none;strokeWidth=1;" parent="1" vertex="1">
          <mxGeometry x="-80" y="-50" width="180" height="80" as="geometry" />
        </mxCell>
        <mxCell id="node0" value="&lt;p style=&quot;margin:0px;margin-top:4px;text-align:center;&quot;&gt;&lt;b&gt;WebServer&lt;/b&gt;&lt;/p&gt;&lt;hr&gt;&lt;span class=&quot;hljs-deletion&quot;&gt;- PORT_RMI : int&lt;/span&gt;&amp;nbsp;&lt;div&gt;&lt;span class=&quot;hljs-deletion&quot;&gt;- PORT_SOCKET : int&lt;/span&gt;&amp;nbsp;&lt;/div&gt;&lt;div&gt;&lt;span class=&quot;hljs-deletion&quot;&gt;- controller : GameController&lt;/span&gt;&amp;nbsp;&lt;/div&gt;&lt;div&gt;&lt;span class=&quot;hljs-deletion&quot;&gt;- clients : ArrayList&amp;lt;VirtualView&amp;gt;&lt;/span&gt;&amp;nbsp;&lt;/div&gt;&lt;div&gt;&lt;span class=&quot;hljs-deletion&quot;&gt;- serverActions : BlockingQueue&amp;lt;Action&amp;gt;&lt;/span&gt;&amp;nbsp;&lt;/div&gt;&lt;div&gt;&lt;span class=&quot;hljs-deletion&quot;&gt;- clientActions : BlockingQueue&amp;lt;Action&amp;gt;&lt;/span&gt;&amp;nbsp;&lt;/div&gt;&lt;div&gt;&lt;span class=&quot;hljs-deletion&quot;&gt;- connectionFlagClient : boolean&lt;/span&gt;&amp;nbsp;&lt;/div&gt;&lt;div&gt;&lt;span class=&quot;hljs-deletion&quot;&gt;- connectionFlagServer : boolean&lt;/span&gt;&amp;nbsp;&lt;/div&gt;&lt;div&gt;&lt;span class=&quot;hljs-deletion&quot;&gt;- gameStarted : boolean&lt;/span&gt;&amp;nbsp;&lt;/div&gt;&lt;div&gt;&lt;span class=&quot;hljs-deletion&quot;&gt;- playersNumber : int&lt;/span&gt;&amp;nbsp;&lt;/div&gt;&lt;div&gt;&lt;span class=&quot;hljs-deletion&quot;&gt;- numStarter : int&lt;/span&gt;&lt;hr size=&quot;1&quot;&gt;&lt;p style=&quot;margin:0 0 0 4px;line-height:1.6;&quot;&gt;+ sendAction(Action): void&lt;br&gt;+ start(): void&lt;br&gt;+ checkAliveThread(): void&lt;br&gt;+ waitingRoutineChoiceAchi(String): void&lt;br&gt;+ startSocketServer(): void&lt;br&gt;+ serverUpdateThread(): void&lt;br&gt;- countOnlinePlayer(): int&lt;br&gt;+ clientsUpdateThread(): void&lt;br&gt;+ shutdown(String): void&lt;br&gt;+ startRmiServer(): void&lt;br&gt;+ connect(VirtualView): boolean&lt;/p&gt;&lt;/div&gt;" style="verticalAlign=top;align=left;overflow=fill;fontSize=14;fontFamily=Helvetica;html=1;rounded=0;shadow=0;comic=0;labelBackgroundColor=none;strokeWidth=1;" parent="1" vertex="1">
          <mxGeometry x="-162" y="1000" width="288" height="490" as="geometry" />
        </mxCell>
        <mxCell id="edge9" value="" style="html=1;rounded=1;edgeStyle=orthogonalEdgeStyle;dashed=1;startArrow=none;endArrow=openThin;endSize=12;strokeColor=#595959;exitX=0.500;exitY=0.000;exitDx=0;exitDy=0;entryX=0.691;entryY=1.000;entryDx=0;entryDy=0;" parent="1" source="node3" target="node2" edge="1">
          <mxGeometry width="50" height="50" relative="1" as="geometry">
            <Array as="points" />
          </mxGeometry>
        </mxCell>
        <mxCell id="label56" value="«create»" style="edgeLabel;resizable=0;html=1;align=left;verticalAlign=top;strokeColor=default;" parent="edge9" vertex="1" connectable="0">
          <mxGeometry x="349" y="310" as="geometry" />
        </mxCell>
        <mxCell id="edge11" value="" style="html=1;rounded=1;edgeStyle=orthogonalEdgeStyle;dashed=0;startArrow=diamondThinstartSize=12;endArrow=openThin;endSize=12;strokeColor=#595959;" parent="1" edge="1">
          <mxGeometry width="50" height="50" relative="1" as="geometry">
            <Array as="points" />
            <mxPoint x="300" y="490" as="sourcePoint" />
            <mxPoint x="300" y="220" as="targetPoint" />
          </mxGeometry>
        </mxCell>
        <mxCell id="label66" value="" style="edgeLabel;resizable=0;html=1;align=left;verticalAlign=top;strokeColor=default;" parent="edge11" vertex="1" connectable="0">
          <mxGeometry x="260" y="177" as="geometry" />
        </mxCell>
        <mxCell id="label70" value="1" style="edgeLabel;resizable=0;html=1;align=left;verticalAlign=top;strokeColor=default;" parent="edge11" vertex="1" connectable="0">
          <mxGeometry x="260" y="423" as="geometry" />
        </mxCell>
        <mxCell id="edge12" value="" style="html=1;rounded=1;edgeStyle=orthogonalEdgeStyle;dashed=0;startArrow=diamondThinstartSize=12;endArrow=openThin;endSize=12;strokeColor=#595959;exitX=0.778;exitY=0.000;exitDx=0;exitDy=0;entryX=1.000;entryY=0.500;entryDx=0;entryDy=0;" parent="1" source="node3" target="node1" edge="1">
          <mxGeometry width="50" height="50" relative="1" as="geometry">
            <Array as="points">
              <mxPoint x="470" y="-200" />
            </Array>
          </mxGeometry>
        </mxCell>
        <mxCell id="label72" value="" style="edgeLabel;resizable=0;html=1;align=left;verticalAlign=top;strokeColor=default;" parent="edge12" vertex="1" connectable="0">
          <mxGeometry x="394" y="-211" as="geometry" />
        </mxCell>
        <mxCell id="label76" value="1" style="edgeLabel;resizable=0;html=1;align=left;verticalAlign=top;strokeColor=default;" parent="edge12" vertex="1" connectable="0">
          <mxGeometry x="455" y="448" as="geometry" />
        </mxCell>
        <mxCell id="label77" value="" style="edgeLabel;resizable=0;html=1;align=left;verticalAlign=top;strokeColor=default;" parent="edge12" vertex="1" connectable="0">
          <mxGeometry x="394" y="-238" as="geometry" />
        </mxCell>
        <mxCell id="edge2" value="" style="html=1;rounded=1;edgeStyle=orthogonalEdgeStyle;dashed=1;startArrow=none;endArrow=block;endSize=12;strokeColor=#008200;exitX=0.000;exitY=0.500;exitDx=0;exitDy=0;entryX=1.000;entryY=0.500;entryDx=0;entryDy=0;" parent="1" source="node3" target="node5" edge="1">
          <mxGeometry width="50" height="50" relative="1" as="geometry">
            <Array as="points">
              <mxPoint x="160" y="948" />
              <mxPoint x="160" y="-10" />
            </Array>
          </mxGeometry>
        </mxCell>
        <mxCell id="edge3" value="" style="html=1;rounded=1;edgeStyle=orthogonalEdgeStyle;dashed=1;startArrow=none;endArrow=block;endSize=12;strokeColor=#008200;exitX=1.000;exitY=0.500;exitDx=0;exitDy=0;entryX=1.000;entryY=0.500;entryDx=0;entryDy=0;" parent="1" source="node6" target="node5" edge="1">
          <mxGeometry width="50" height="50" relative="1" as="geometry">
            <Array as="points">
              <mxPoint x="160" y="805" />
              <mxPoint x="160" y="-10" />
            </Array>
          </mxGeometry>
        </mxCell>
        <mxCell id="edge1" value="" style="html=1;rounded=1;edgeStyle=orthogonalEdgeStyle;dashed=1;startArrow=none;endArrow=block;endSize=12;strokeColor=#008200;exitX=1.000;exitY=0.500;exitDx=0;exitDy=0;entryX=1.000;entryY=0.500;entryDx=0;entryDy=0;" parent="1" source="node4" target="node5" edge="1">
          <mxGeometry width="50" height="50" relative="1" as="geometry">
            <Array as="points">
              <mxPoint x="160" y="380" />
              <mxPoint x="160" y="-10" />
            </Array>
          </mxGeometry>
        </mxCell>
        <mxCell id="edge0" value="" style="html=1;rounded=1;edgeStyle=orthogonalEdgeStyle;dashed=1;startArrow=none;endArrow=block;endSize=12;strokeColor=#008200;exitX=0;exitY=0.25;exitDx=0;exitDy=0;entryX=0.000;entryY=0.500;entryDx=0;entryDy=0;" parent="1" source="node2" target="node1" edge="1">
          <mxGeometry width="50" height="50" relative="1" as="geometry">
            <Array as="points">
              <mxPoint x="127" y="-49" />
              <mxPoint x="127" y="-200" />
            </Array>
          </mxGeometry>
        </mxCell>
        <mxCell id="edge4" value="" style="html=1;rounded=1;edgeStyle=orthogonalEdgeStyle;dashed=0;startArrow=circlePlus;startFill=0;endArrow=none;strokeColor=#820000;exitX=0.500;exitY=1.001;exitDx=0;exitDy=0;entryX=0.127;entryY=0.000;entryDx=0;entryDy=0;" parent="1" source="node7" target="node3" edge="1">
          <mxGeometry width="50" height="50" relative="1" as="geometry">
            <Array as="points" />
          </mxGeometry>
        </mxCell>
        <mxCell id="edge8" value="" style="html=1;rounded=1;edgeStyle=orthogonalEdgeStyle;dashed=1;startArrow=none;endArrow=openThin;endSize=12;strokeColor=#595959;exitX=0.652;exitY=0.000;exitDx=0;exitDy=0;entryX=0.500;entryY=1.000;entryDx=0;entryDy=0;" parent="1" source="node0" target="node6" edge="1">
          <mxGeometry width="50" height="50" relative="1" as="geometry">
            <Array as="points" />
          </mxGeometry>
        </mxCell>
        <mxCell id="edge13" value="" style="html=1;rounded=1;edgeStyle=orthogonalEdgeStyle;dashed=1;startArrow=none;endArrow=openThin;endSize=12;strokeColor=#595959;exitX=0.240;exitY=0.000;exitDx=0;exitDy=0;entryX=0.14;entryY=1.001;entryDx=0;entryDy=0;entryPerimeter=0;" parent="1" source="node0" target="node4" edge="1">
          <mxGeometry width="50" height="50" relative="1" as="geometry">
            <Array as="points" />
          </mxGeometry>
        </mxCell>
        <mxCell id="label80" value="«create»" style="edgeLabel;resizable=0;html=1;align=left;verticalAlign=top;strokeColor=default;" parent="edge13" vertex="1" connectable="0">
          <mxGeometry x="-149" y="841" as="geometry" />
        </mxCell>
        <mxCell id="edge5" value="" style="html=1;rounded=1;edgeStyle=orthogonalEdgeStyle;dashed=1;startArrow=none;endArrow=block;endSize=12;strokeColor=#008200;exitX=0.000;exitY=0.500;exitDx=0;exitDy=0;entryX=0.000;entryY=0.500;entryDx=0;entryDy=0;" parent="1" source="node0" target="node1" edge="1">
          <mxGeometry width="50" height="50" relative="1" as="geometry">
            <Array as="points">
              <mxPoint x="-180" y="1245" />
              <mxPoint x="-180" y="1142" />
              <mxPoint x="-179" y="1142" />
              <mxPoint x="-179" y="-73" />
              <mxPoint x="127" y="-73" />
              <mxPoint x="127" y="-200" />
            </Array>
          </mxGeometry>
        </mxCell>
      </root>
    </mxGraphModel>
  </diagram>
</mxfile>
